<?xml version="1.0" standalone="no"?>
<!DOCTYPE svg PUBLIC "-//W3C//DTD SVG 20010904//EN"
 "http://www.w3.org/TR/2001/REC-SVG-20010904/DTD/svg10.dtd">
<svg version="1.0" xmlns="http://www.w3.org/2000/svg"
 width="282.000000pt" height="313.000000pt" viewBox="0 0 282.000000 313.000000"
 preserveAspectRatio="xMidYMid meet">
<metadata>
Created by potrace 1.16, written by Peter Selinger 2001-2019
</metadata>
<g transform="translate(0.000000,313.000000) scale(0.100000,-0.100000)"
fill="#000000" stroke="none">
<path d="M0 1565 l0 -1565 1410 0 1410 0 0 1565 0 1565 -1410 0 -1410 0 0
-1565z m1232 1510 c0 -11 -9 -16 -230 -131 -188 -98 -207 -110 -316 -209 -51
-46 -96 -82 -99 -79 -3 3 -4 -1 -3 -10 1 -8 4 -18 7 -21 5 -5 92 63 136 106
13 13 29 19 39 15 9 -4 23 2 32 13 24 27 209 117 297 144 170 52 274 77 323
77 17 0 32 5 32 10 0 6 -18 10 -40 10 -40 0 -53 13 -24 24 61 24 449 -14 505
-50 8 -4 22 -7 32 -6 23 4 299 -133 325 -161 18 -21 19 -23 3 -39 -16 -16 -21
-15 -82 27 -87 59 -264 137 -367 164 -99 24 -241 44 -274 38 -18 -3 -15 -5 12
-7 34 -3 34 -3 -10 -10 l-45 -7 53 -1 c29 -1 66 -9 82 -17 16 -8 63 -20 104
-25 41 -6 101 -21 135 -34 33 -13 62 -22 64 -20 7 7 155 -67 205 -101 76 -53
99 -74 80 -75 -10 0 -18 -3 -18 -7 0 -13 34 -43 49 -43 13 1 13 3 -3 15 -11 8
-17 18 -13 21 12 12 167 -138 167 -161 0 -5 -14 6 -30 25 -32 38 -38 29 -16
-25 10 -24 22 -35 35 -35 12 0 21 5 21 10 0 21 16 8 61 -48 72 -88 154 -246
199 -381 42 -128 46 -146 30 -136 -16 10 -12 -18 7 -45 12 -17 13 -25 5 -28
-7 -2 -12 -11 -12 -19 0 -13 3 -13 15 -3 9 8 15 9 15 2 0 -6 -4 -13 -9 -17 -6
-3 -4 -20 5 -40 9 -22 17 -90 21 -178 4 -78 10 -128 13 -112 3 17 10 29 15 27
16 -4 7 -186 -16 -310 -23 -123 -71 -268 -144 -437 -9 -22 -34 -56 -55 -75
-22 -21 -40 -48 -44 -69 l-6 -34 21 27 c30 38 34 26 9 -23 -19 -38 -40 -54
-40 -31 0 23 -27 6 -60 -36 -69 -89 -356 -336 -414 -357 -6 -2 -8 -8 -3 -12 8
-10 108 29 152 59 87 60 185 149 205 187 11 20 40 27 40 9 0 -17 -144 -155
-220 -211 -39 -29 -185 -104 -241 -124 -32 -11 -39 -11 -52 3 -13 13 -23 14
-54 5 -21 -6 -57 -16 -80 -23 -24 -6 -43 -16 -43 -22 0 -7 -4 -7 -14 1 -9 8
-22 8 -44 0 -17 -6 -41 -9 -54 -7 -29 5 -22 8 102 43 52 14 106 34 120 43 14
9 40 22 57 28 48 17 186 98 174 102 -6 2 -38 -13 -71 -32 -34 -20 -68 -36 -76
-36 -9 0 -24 -5 -35 -10 -21 -12 -156 -40 -204 -44 -16 -1 -41 -9 -55 -18 -14
-9 -50 -20 -80 -24 -32 -3 -60 -13 -68 -22 -11 -14 -17 -14 -45 -3 -17 7 -48
17 -67 23 -19 5 -40 14 -46 19 -6 5 -25 4 -45 -1 -43 -13 -91 -4 -118 21 -15
14 -26 17 -38 11 -22 -13 -140 43 -192 91 -22 20 -43 32 -46 27 -10 -17 -44
-11 -85 15 -22 14 -46 25 -53 25 -16 0 -37 20 -37 36 0 10 6 10 27 -1 20 -10
31 -11 40 -3 18 15 16 28 -9 55 -24 25 -43 31 -35 10 3 -8 -1 -14 -8 -14 -7 0
-11 6 -8 14 6 17 0 16 -42 -1 -34 -14 -35 -14 -60 17 -68 83 -121 139 -147
155 -15 9 -28 21 -28 28 0 6 -9 19 -19 28 -10 9 -33 46 -50 81 -31 62 -51 88
-51 66 0 -6 -9 -20 -20 -31 l-21 -21 -38 83 c-49 105 -84 210 -79 234 4 15 7
13 17 -11 6 -16 15 -39 20 -50 25 -60 51 -132 51 -143 0 -14 9 -15 28 -4 13 9
6 41 -28 117 -10 22 -21 60 -25 85 -4 25 -18 86 -32 135 -28 101 -30 114 -45
274 -8 84 -8 119 0 132 9 13 9 20 0 25 -7 5 -9 36 -5 102 4 52 4 92 1 89 -11
-11 -33 -295 -28 -370 3 -46 1 -77 -5 -77 -17 0 -20 32 -20 244 0 158 -4 211
-13 217 -10 6 -9 11 3 21 9 7 19 28 23 46 5 27 3 32 -11 30 -9 -2 -18 3 -20
10 -3 7 4 12 15 12 13 0 23 9 27 23 3 12 10 31 15 42 12 29 50 161 50 175 0 7
20 57 45 111 25 54 45 104 45 111 0 25 35 98 48 98 15 0 16 -12 0 -28 -9 -9
-9 -15 0 -24 9 -9 12 -8 12 5 0 9 4 17 9 17 5 0 34 35 64 78 30 42 64 86 76
96 27 25 27 28 -10 64 -29 28 -32 52 -8 52 6 0 24 -13 41 -30 l29 -30 67 47
c120 85 142 106 135 131 -6 26 12 30 26 5 9 -17 11 -17 38 0 15 10 66 37 113
59 47 23 93 48 102 56 23 19 211 112 221 109 5 -1 9 -7 9 -12z m1300 -563 c22
-33 28 -50 23 -69 -5 -22 -4 -25 8 -15 18 15 21 11 76 -89 48 -89 104 -235 98
-258 -2 -9 -20 19 -40 64 -20 44 -44 94 -53 110 -10 17 -28 50 -42 75 -14 25
-49 74 -77 110 -89 112 -99 129 -84 146 10 13 15 12 37 -8 13 -13 38 -42 54
-66z m-1527 -2382 c7 0 23 -9 36 -21 13 -11 31 -18 41 -16 10 3 28 -3 40 -12
13 -10 42 -21 66 -24 44 -5 60 -13 50 -22 -5 -6 -75 8 -196 39 -77 19 -215 86
-261 125 -63 55 -23 50 96 -10 64 -32 121 -59 128 -59z"/>
<path d="M1322 2365 c-153 -34 -313 -144 -371 -252 -8 -15 -8 -23 -1 -23 5 0
0 -15 -12 -34 -13 -19 -27 -34 -33 -33 -5 1 -21 -29 -34 -68 -47 -134 -27
-435 30 -466 17 -9 18 -7 7 18 -6 16 -21 65 -32 109 -36 134 -17 255 68 419
60 117 146 200 271 261 91 44 103 47 203 54 111 7 132 3 263 -53 86 -36 211
-158 256 -249 56 -115 62 -136 69 -239 8 -124 -4 -194 -47 -287 -17 -37 -35
-76 -39 -87 -5 -11 -34 -51 -67 -88 -136 -159 -145 -177 -168 -334 -9 -56 -26
-68 -101 -68 -76 0 -76 0 -70 140 3 65 12 111 31 165 15 41 34 101 42 133 11
38 23 61 37 69 29 15 36 28 36 64 0 58 -48 68 -65 14 -7 -23 -61 -43 -84 -31
-9 5 -25 32 -35 60 -21 58 -28 65 -60 57 -23 -6 -46 -43 -46 -75 0 -21 -36
-56 -67 -65 -19 -6 -23 -2 -33 32 -13 50 -34 70 -55 52 -27 -23 -18 -69 20
-103 19 -17 35 -39 35 -49 0 -10 15 -64 34 -120 34 -101 40 -155 37 -300 l-1
-46 -61 -4 c-79 -4 -95 12 -109 111 -14 97 -45 162 -120 246 -34 39 -74 90
-88 114 -14 24 -28 39 -30 33 -2 -7 -8 -9 -14 -6 -14 9 9 -33 49 -89 19 -26
39 -45 44 -41 5 3 12 -3 16 -13 3 -10 28 -43 54 -73 41 -48 50 -66 63 -132 9
-43 16 -89 16 -103 0 -14 9 -34 20 -45 l20 -20 -21 -30 c-25 -33 -22 -89 8
-122 11 -13 14 -22 7 -26 -21 -13 -34 -52 -28 -77 8 -32 40 -55 76 -55 25 0
28 -4 34 -43 8 -51 69 -116 112 -119 49 -3 107 3 134 13 33 13 68 69 68 110 0
23 4 29 20 29 29 0 76 26 84 45 11 30 6 67 -14 95 -19 27 -19 28 -1 44 29 27
34 73 11 106 -18 26 -18 29 -3 41 25 22 43 74 43 129 0 65 38 141 118 237 82
98 131 189 160 297 43 166 17 349 -73 503 -34 57 -150 171 -182 179 -13 4 -23
12 -23 18 0 14 -28 29 -110 58 -73 26 -215 32 -298 13z m128 -816 c6 -23 23
-52 36 -66 24 -24 40 -26 88 -7 13 5 12 -3 -5 -58 -65 -202 -76 -255 -85 -388
l-5 -95 -50 0 -49 0 -1 50 c-1 147 -10 205 -47 322 l-39 121 26 19 c14 11 34
22 43 26 10 3 20 19 24 34 9 39 33 83 44 83 5 0 14 -19 20 -41z m107 -655 c86
-13 29 -62 -97 -84 -111 -19 -244 -28 -257 -17 -19 14 -16 84 3 95 20 11 287
16 351 6z m103 -178 c0 -6 -4 -6 -11 1 -13 13 -67 7 -83 -8 -6 -5 -26 -9 -45
-10 -20 0 -30 -3 -23 -6 17 -7 15 -21 -5 -26 -10 -3 4 -5 31 -6 27 0 46 -4 43
-8 -10 -9 -100 -4 -107 6 -16 24 -159 13 -188 -16 -43 -42 -103 29 -65 76 17
20 29 22 213 27 107 3 197 7 199 10 6 6 41 -27 41 -40z"/>
</g>
</svg>
