<?xml version="1.0" standalone="no"?>
<!DOCTYPE svg PUBLIC "-//W3C//DTD SVG 20010904//EN"
 "http://www.w3.org/TR/2001/REC-SVG-20010904/DTD/svg10.dtd">
<svg version="1.0" xmlns="http://www.w3.org/2000/svg"
 width="270.000000pt" height="305.000000pt" viewBox="0 0 270.000000 305.000000"
 preserveAspectRatio="xMidYMid meet">
<metadata>
Created by potrace 1.16, written by Peter Selinger 2001-2019
</metadata>
<g transform="translate(0.000000,305.000000) scale(0.100000,-0.100000)"
fill="#000000" stroke="none">
<path d="M0 1525 l0 -1525 1350 0 1350 0 0 1525 0 1525 -1350 0 -1350 0 0
-1525z m1681 1474 c183 -45 336 -120 435 -211 35 -33 71 -58 83 -58 21 0 70
-48 124 -120 15 -21 35 -40 45 -42 9 -3 26 -22 37 -44 11 -21 35 -58 53 -83
58 -78 118 -211 163 -359 12 -41 6 -74 -7 -36 -4 10 -19 46 -34 79 -15 33 -30
72 -33 86 -7 27 -138 235 -160 254 -7 6 -30 33 -51 60 -101 129 -219 230 -371
318 -121 70 -359 157 -427 157 -16 0 -28 5 -28 10 0 17 82 11 171 -11z m-114
-18 c60 -12 108 -34 116 -54 3 -7 44 -28 91 -47 48 -18 89 -37 92 -42 3 -4 14
-8 24 -8 10 0 59 -24 107 -54 l88 -54 -3 -39 c-2 -39 -2 -40 33 -39 21 1 35 6
35 14 0 24 61 -32 127 -116 40 -51 69 -80 76 -76 7 4 9 4 5 -1 -4 -4 1 -15 10
-24 10 -9 11 -11 3 -6 -8 6 -4 -6 10 -27 13 -20 27 -35 30 -32 4 2 6 -2 5 -9
0 -6 16 -43 35 -82 38 -73 109 -255 109 -277 0 -7 -15 24 -34 70 -19 46 -36
86 -40 89 -13 13 -5 -33 9 -51 9 -11 15 -41 15 -70 0 -31 6 -56 16 -67 9 -10
17 -33 18 -50 1 -18 7 -34 14 -37 7 -2 15 -21 18 -43 4 -21 11 -39 16 -39 5 0
6 9 3 20 -4 12 -2 20 4 20 6 0 11 -12 10 -27 -1 -16 2 -36 6 -45 4 -10 3 -18
-2 -18 -6 0 -11 -15 -11 -32 -2 -35 16 -90 27 -84 3 2 6 -17 6 -42 0 -32 4
-46 13 -44 9 1 12 -19 12 -77 0 -44 3 -88 6 -98 5 -17 5 -17 -9 0 -14 17 -15
16 -12 -19 1 -24 -3 -43 -11 -49 -7 -5 -15 -32 -18 -60 -3 -27 -8 -66 -12 -86
-4 -23 -2 -39 5 -43 6 -4 11 -12 11 -17 0 -6 -4 -8 -9 -4 -5 3 -12 1 -16 -5
-3 -5 -1 -10 5 -10 6 0 8 -5 5 -11 -5 -7 -13 -5 -25 6 -19 17 -20 15 -48 -70
-6 -16 -13 -38 -17 -47 -11 -28 14 -22 26 6 8 17 17 22 28 18 14 -5 14 -4 2
11 -9 11 -10 17 -2 17 7 0 9 9 5 25 -8 31 4 33 15 3 5 -14 5 -28 -1 -36 -7 -8
-6 -12 3 -12 9 0 10 -3 3 -8 -6 -4 -24 -35 -39 -69 -38 -87 -72 -85 -39 1 11
29 -13 16 -26 -13 -6 -16 -20 -37 -30 -46 -10 -9 -16 -24 -13 -33 2 -10 -9
-35 -26 -56 -17 -21 -31 -48 -31 -60 l1 -21 18 22 c10 12 26 21 36 20 12 -1
26 13 42 43 28 52 43 70 43 52 0 -62 -192 -292 -375 -449 -59 -51 -290 -178
-368 -203 -30 -9 -36 -15 -27 -24 9 -8 14 -8 17 2 3 6 8 10 13 7 12 -8 143 42
156 59 6 9 18 14 26 11 12 -5 125 47 138 64 3 3 23 18 45 32 43 29 97 79 158
148 21 23 41 40 44 37 3 -3 -2 -12 -11 -21 -9 -9 -16 -23 -16 -30 0 -8 -20
-28 -44 -45 -24 -17 -49 -42 -56 -56 -8 -13 -16 -24 -19 -24 -3 0 -31 -20 -61
-45 -65 -55 -192 -125 -275 -154 -207 -73 -400 -113 -435 -91 -12 7 -7 12 23
25 21 9 42 13 47 10 5 -3 11 -1 15 5 9 15 -81 12 -97 -3 -19 -19 -81 -39 -87
-28 -4 5 -35 4 -73 -1 -38 -6 -76 -7 -85 -3 -10 4 -36 9 -58 11 -51 5 -65 11
-65 25 0 8 18 9 63 5 102 -11 193 -15 177 -9 -8 3 -20 13 -26 21 -6 8 -15 12
-21 9 -6 -4 -34 3 -64 13 -30 11 -60 18 -67 15 -8 -3 -35 3 -60 14 -26 10 -65
24 -87 31 -22 7 -93 38 -157 69 -65 31 -118 55 -118 54 0 -2 16 -18 37 -36 25
-23 34 -39 30 -50 -11 -28 -31 -20 -105 41 -38 31 -89 71 -112 87 -74 53 -221
241 -236 302 -6 24 -5 26 8 16 26 -22 18 18 -15 69 -33 52 -48 58 -23 9 9 -16
16 -37 16 -45 0 -24 -24 -9 -44 29 -11 19 -23 35 -28 35 -4 0 -8 6 -8 13 0 7
-16 45 -35 84 -19 39 -35 76 -35 83 0 6 -7 25 -16 43 -10 17 -18 47 -19 67 -2
19 -10 66 -19 104 -9 38 -14 71 -11 74 12 12 27 -19 45 -90 18 -74 79 -242 85
-236 2 2 -6 37 -16 78 -50 196 -89 427 -89 533 0 86 -7 127 -21 127 -4 0 -10
-15 -13 -32 -2 -18 -2 21 0 87 5 118 24 228 49 289 11 26 15 28 20 13 4 -9 5
-34 1 -55 -3 -21 6 -3 22 43 34 99 140 317 197 406 71 110 229 271 326 332 81
51 252 137 273 137 8 0 30 9 48 19 34 20 111 47 213 77 109 31 230 36 342 15z
m-979 -305 c-40 -41 -76 -72 -80 -70 -4 3 -44 -38 -89 -90 -78 -90 -147 -198
-221 -346 -22 -44 -34 -59 -36 -46 -6 29 76 194 136 275 72 96 236 277 270
299 15 9 32 22 37 29 6 6 19 13 30 16 11 3 21 5 23 6 1 0 -30 -32 -70 -73z"/>
<path d="M930 2527 c-19 -13 -40 -22 -46 -20 -7 2 -25 -7 -40 -20 l-28 -25 2
-148 c2 -82 6 -152 11 -157 4 -4 11 61 15 145 4 84 11 156 15 161 4 4 222 9
484 10 l477 3 0 -147 c0 -134 2 -149 21 -174 22 -27 23 -27 133 -25 61 1 125
2 142 1 l31 -1 -5 -131 c-4 -109 -2 -131 9 -127 11 4 15 36 17 144 l2 139
-117 116 c-65 63 -141 142 -169 175 l-51 59 -164 -4 c-290 -8 -641 -3 -653 10
-8 8 -7 13 2 16 24 9 12 23 -21 23 -18 0 -48 -11 -67 -23z m1166 -354 c-2 -2
-57 -5 -124 -8 -140 -6 -134 -11 -128 100 2 33 4 86 5 117 l1 58 124 -132 c69
-73 123 -134 122 -135z"/>
<path d="M1010 2053 c-141 -29 -278 -143 -360 -301 -25 -48 -60 -186 -60 -239
0 -108 51 -255 111 -319 l30 -31 -18 -32 c-15 -26 -23 -30 -42 -26 -23 6 -71
-26 -71 -48 0 -5 -9 -19 -19 -31 -27 -29 -134 -170 -178 -234 -73 -107 -36
-203 88 -226 33 -6 39 -3 73 36 20 24 52 66 70 93 19 28 41 49 49 49 9 -1 13
4 11 11 -7 18 85 137 98 129 6 -4 8 -3 5 2 -3 6 -2 16 4 24 9 15 11 -9 13
-153 1 -72 26 -96 97 -97 57 0 68 -10 32 -27 -16 -7 -20 -11 -10 -8 10 3 31 5
45 5 21 0 24 2 12 10 -10 7 13 10 75 10 50 -1 119 3 153 8 35 5 80 6 99 3 19
-3 126 -1 236 5 127 6 251 7 332 2 163 -11 242 -4 264 24 15 18 16 67 15 486
-2 538 -1 505 -13 497 -6 -3 -9 -195 -8 -484 l2 -478 -26 -12 c-20 -9 -180
-11 -620 -7 -337 2 -601 0 -610 -5 -36 -19 -44 14 -41 175 2 83 5 154 8 157 2
4 -2 10 -8 12 -9 4 -8 6 3 6 8 1 19 -3 25 -8 27 -25 152 -53 232 -52 128 2
214 37 310 126 74 68 114 129 149 226 69 193 20 435 -115 575 -46 47 -139 107
-203 130 -45 15 -194 26 -239 17z m271 -62 c142 -68 235 -187 279 -359 18 -74
20 -93 10 -165 -6 -45 -15 -91 -19 -102 -51 -115 -74 -158 -112 -202 -54 -64
-123 -115 -144 -107 -8 4 -21 2 -28 -4 -49 -40 -251 -55 -317 -24 -66 32 -100
57 -97 72 1 9 -5 14 -14 12 -21 -3 -109 81 -140 133 -17 29 -18 36 -6 26 9 -7
27 -31 39 -52 23 -42 23 -42 53 -30 19 7 18 8 -5 21 -46 23 -120 107 -126 142
-4 18 -11 40 -15 50 -15 29 -12 199 4 259 47 172 179 306 349 354 34 10 83 14
138 11 70 -3 96 -9 151 -35z m-528 -1073 c-17 -20 -37 -46 -43 -59 -7 -12 -42
-62 -79 -110 -36 -49 -74 -100 -84 -114 -36 -51 -123 -22 -147 50 -13 39 -6
53 66 140 22 28 56 73 74 100 19 28 53 73 77 101 l43 51 62 -61 63 -61 -32
-37z"/>
<path d="M982 1916 c-222 -84 -332 -372 -226 -591 55 -114 150 -203 224 -210
14 -1 44 -8 68 -14 101 -28 264 47 347 160 84 114 113 288 66 394 -52 116 -64
135 -107 175 -108 99 -250 132 -372 86z m270 -58 c59 -31 96 -64 85 -74 -3 -4
-82 -8 -174 -10 -92 -1 -170 -3 -173 -4 -2 0 0 -4 5 -9 10 -9 335 -18 364 -10
10 3 26 -16 45 -51 30 -52 31 -60 31 -170 0 -98 -3 -122 -22 -160 -36 -74 -35
-74 -77 -56 -26 11 -44 13 -61 6 -13 -5 -79 -9 -146 -9 -112 0 -140 -3 -127
-16 2 -3 75 -7 162 -10 86 -2 164 -8 172 -13 12 -7 7 -16 -27 -46 -67 -62
-120 -81 -219 -81 -74 0 -92 4 -135 28 -27 15 -66 42 -86 60 l-36 32 8 200 c5
110 9 226 10 257 2 57 2 58 55 99 66 51 165 81 239 73 27 -3 75 -19 107 -36z
m-439 -333 c6 -167 5 -179 -10 -160 -13 16 -14 17 -9 3 17 -49 15 -48 -13 2
-26 48 -30 65 -31 135 0 67 4 88 25 127 14 26 25 55 25 64 0 10 2 15 4 13 2
-2 6 -85 9 -184z"/>
</g>
</svg>
