<?xml version="1.0" standalone="no"?>
<!DOCTYPE svg PUBLIC "-//W3C//DTD SVG 20010904//EN"
 "http://www.w3.org/TR/2001/REC-SVG-20010904/DTD/svg10.dtd">
<svg version="1.0" xmlns="http://www.w3.org/2000/svg"
 width="275.000000pt" height="307.000000pt" viewBox="0 0 275.000000 307.000000"
 preserveAspectRatio="xMidYMid meet">
<metadata>
Created by potrace 1.16, written by Peter Selinger 2001-2019
</metadata>
<g transform="translate(0.000000,307.000000) scale(0.100000,-0.100000)"
fill="#000000" stroke="none">
<path d="M0 1535 l0 -1535 1375 0 1375 0 0 1535 0 1535 -1375 0 -1375 0 0
-1535z m1755 1467 c17 -5 62 -15 100 -22 76 -14 250 -92 299 -136 25 -22 27
-27 14 -40 -13 -13 -24 -9 -96 37 -62 39 -87 50 -106 45 -26 -6 -79 12 -71 25
3 4 -30 19 -72 33 -93 31 -120 34 -44 4 33 -12 55 -28 58 -39 3 -11 17 -22 32
-25 14 -4 45 -16 69 -27 33 -16 45 -18 51 -9 5 9 20 4 54 -19 26 -17 47 -33
47 -36 0 -5 -14 3 -52 29 -14 10 -32 18 -38 18 -20 0 7 -27 65 -65 28 -19 79
-63 113 -99 34 -35 63 -63 65 -62 16 5 -106 -102 -129 -114 -16 -8 -43 -25
-60 -37 -17 -13 -36 -23 -41 -23 -14 0 -68 -62 -88 -99 -25 -49 -29 -106 -11
-160 l16 -49 -56 -119 c-89 -188 -120 -256 -134 -293 -24 -65 -59 -76 -108
-35 -43 36 -45 69 -11 137 27 54 28 61 20 121 -11 78 -29 114 -75 155 -121
106 -298 137 -497 87 -93 -23 -254 -106 -331 -170 -187 -155 -328 -419 -331
-620 -3 -146 42 -313 115 -426 53 -81 179 -208 238 -238 25 -12 60 -32 79 -43
32 -20 51 -26 166 -49 28 -6 102 -11 167 -11 l116 0 -24 -52 c-32 -69 -32
-111 2 -132 39 -26 74 -9 105 51 94 181 87 171 132 185 112 33 336 192 421
299 80 100 101 139 140 253 27 79 36 121 36 171 0 123 -55 217 -144 247 l-36
11 25 49 c14 27 32 71 41 97 9 26 31 83 50 126 19 43 34 86 34 96 0 14 12 22
44 30 27 6 62 27 92 55 44 39 51 52 68 117 10 41 23 121 30 179 10 93 13 105
31 108 14 2 26 -8 40 -35 11 -21 33 -57 49 -80 16 -23 29 -54 30 -69 1 -15 7
-29 15 -32 10 -3 12 1 7 14 -4 14 -1 12 14 -6 10 -14 17 -32 14 -42 -3 -9 0
-19 6 -23 5 -3 15 -15 21 -27 8 -15 8 -19 0 -14 -7 4 -11 -1 -11 -13 0 -11 5
-23 10 -26 6 -3 10 -17 10 -30 0 -13 5 -27 10 -30 6 -3 10 -1 10 6 0 19 16 -1
25 -30 5 -17 4 -21 -5 -16 -9 6 -11 -5 -8 -41 3 -27 8 -56 12 -66 5 -10 3 -16
-6 -15 -35 1 -58 -4 -58 -13 0 -5 9 -10 21 -10 14 0 19 -5 16 -14 -3 -8 1 -17
10 -20 10 -4 14 -2 10 8 -3 8 1 20 9 26 12 10 14 8 14 -13 0 -17 -13 -40 -37
-63 l-36 -37 29 5 c16 3 36 8 45 12 19 8 35 -25 45 -97 5 -40 3 -50 -12 -62
-18 -13 -17 -14 11 -12 30 2 30 2 33 -55 2 -38 7 -56 15 -54 7 1 9 1 5 -1 -12
-7 -10 -43 2 -43 6 0 10 -7 10 -16 0 -8 -4 -13 -9 -10 -5 3 -11 -31 -13 -76
-2 -53 -8 -83 -16 -86 -6 -2 -12 -13 -12 -25 0 -22 -21 -98 -67 -237 -31 -93
-84 -204 -140 -292 -24 -36 -43 -77 -43 -91 0 -13 -11 -34 -25 -47 -14 -13
-25 -30 -25 -37 0 -8 -7 -16 -15 -20 -9 -3 -23 -20 -31 -37 -9 -17 -35 -50
-57 -73 -48 -50 -42 -72 6 -25 18 18 36 32 41 32 4 0 -14 -21 -41 -48 -65 -62
-98 -90 -88 -73 5 9 -2 7 -17 -5 -14 -10 -23 -23 -20 -28 3 -5 1 -6 -5 -3 -5
3 -20 -4 -34 -16 -14 -12 -18 -17 -10 -12 8 6 4 -5 -9 -22 -13 -18 -21 -36
-17 -39 12 -13 54 6 90 41 20 19 39 35 44 35 4 0 36 29 70 65 43 45 63 60 63
48 0 -24 -61 -89 -130 -139 -51 -38 -101 -61 -290 -135 -115 -45 -360 -100
-360 -81 0 5 39 21 88 36 48 15 97 31 109 36 13 5 30 7 38 4 10 -4 15 0 15 11
0 11 -6 15 -17 11 -124 -37 -232 -56 -348 -61 -22 -1 -49 -5 -60 -9 -17 -7
-17 -6 -5 4 12 9 6 11 -28 7 -24 -3 -40 -1 -36 4 3 5 4 9 2 9 -16 1 -172 31
-205 39 -35 9 -123 45 -143 59 -2 2 2 8 10 13 13 9 13 10 0 7 -18 -3 -57 17
-87 45 -18 16 -25 18 -38 7 -20 -16 -105 17 -105 41 0 23 -69 74 -101 75 -14
0 -32 5 -40 9 -10 6 -8 0 5 -20 l18 -30 -32 33 c-17 17 -36 32 -42 32 -7 0 -7
5 1 14 10 11 8 16 -8 21 -10 3 -22 13 -25 21 -3 8 -2 12 4 9 6 -3 10 -2 10 4
0 5 -5 13 -10 16 -6 4 -20 27 -32 51 -19 42 -67 81 -81 67 -4 -3 -14 8 -24 26
-10 17 -26 31 -36 31 -16 0 -16 -2 -2 -30 8 -16 19 -29 23 -27 4 1 7 -1 7 -4
0 -3 6 -13 14 -23 9 -11 17 -13 26 -6 8 7 12 5 12 -5 0 -8 -4 -12 -9 -9 -4 3
-8 0 -8 -6 0 -6 -16 5 -36 25 -19 19 -39 33 -45 30 -5 -4 -9 7 -9 23 0 16 -9
41 -20 55 -11 14 -20 29 -20 33 0 4 -11 22 -24 39 -29 38 -42 80 -27 89 13 8
43 -48 35 -67 -2 -7 2 -20 11 -27 12 -10 15 -10 15 0 0 10 3 10 15 0 21 -18
19 -11 -20 77 -26 61 -38 77 -52 75 -10 -2 -21 -8 -24 -14 -7 -11 -19 15 -19
43 0 10 -4 19 -8 19 -15 0 -65 177 -55 193 8 14 23 -14 23 -45 0 -15 4 -29 9
-32 5 -3 12 -23 15 -43 9 -51 38 -113 54 -113 18 0 15 30 -13 101 -15 35 -30
84 -35 109 -5 25 -16 76 -25 114 -23 107 -36 306 -25 367 15 77 13 110 -5 103
-18 -7 -18 -9 0 91 8 44 14 81 15 83 0 1 6 2 14 2 8 0 17 7 20 16 5 13 1 15
-19 11 -20 -3 -25 -1 -21 10 4 8 9 26 12 39 8 33 30 24 26 -10 -5 -48 16 -18
28 39 6 30 16 57 21 60 5 4 9 16 9 29 0 12 4 26 9 32 5 5 22 41 38 79 27 66
57 121 123 225 16 25 29 55 29 66 1 12 8 27 16 34 21 18 19 35 -2 19 -16 -13
-17 -12 -4 3 7 10 17 16 21 13 9 -6 141 125 135 135 -2 4 10 20 28 36 18 16
24 19 13 7 -14 -17 -15 -23 -6 -23 8 0 25 10 38 23 14 12 22 16 18 10 -12 -21
29 -3 205 88 120 62 214 99 252 99 10 0 25 4 35 10 16 9 157 41 272 61 30 6
57 12 60 16 8 8 210 -4 245 -15z m618 -388 c12 -14 36 -43 53 -63 87 -103 207
-323 234 -431 6 -25 13 -53 16 -62 3 -10 0 -18 -7 -18 -7 0 -9 3 -6 6 4 4 0
19 -7 33 -7 14 -35 69 -61 121 -26 52 -53 102 -59 110 -7 8 -25 37 -41 64 -49
87 -147 217 -159 213 -8 -3 -11 5 -8 24 5 36 17 37 45 3z m-301 -192 c-23 -22
-42 -43 -42 -47 0 -5 10 1 23 13 l23 21 0 -22 c0 -12 -17 -51 -38 -86 -21 -34
-38 -73 -38 -85 0 -11 -3 -32 -7 -45 l-6 -24 -19 24 c-15 20 -17 21 -12 4 4
-11 14 -29 23 -40 15 -19 15 -19 -3 -5 -11 8 -25 29 -33 47 -35 85 5 183 101
245 33 21 61 38 64 38 3 0 -13 -17 -36 -38z m49 -136 c-23 -42 -38 -76 -34
-76 5 0 14 9 21 20 7 11 18 20 26 20 7 0 31 17 53 38 l40 39 -9 -45 c-4 -25
-6 -47 -4 -49 2 -2 15 27 30 64 l26 68 -6 -60 c-6 -56 -42 -146 -63 -159 -5
-3 -11 1 -15 9 -3 8 -12 12 -20 9 -9 -3 -17 3 -21 15 -3 12 -11 19 -16 15 -6
-4 -6 -11 2 -20 9 -11 8 -20 -5 -39 -16 -24 -34 -37 -20 -14 4 8 -1 9 -16 4
-17 -5 -21 -4 -15 6 5 8 -3 3 -18 -10 l-26 -23 5 23 c5 23 5 23 -10 5 -15 -19
-16 -17 -16 25 0 79 18 120 77 178 76 74 89 57 34 -43z m-680 -138 c145 -67
213 -190 160 -289 -35 -65 -43 -114 -27 -153 18 -42 71 -79 104 -71 12 3 22 4
22 1 0 -2 -13 -35 -29 -72 -16 -38 -56 -134 -89 -214 -33 -80 -72 -172 -87
-205 -15 -33 -33 -79 -42 -103 -8 -24 -27 -71 -42 -105 -16 -34 -47 -110 -70
-169 -48 -122 -43 -118 -187 -119 -90 0 -148 10 -254 48 -140 50 -285 165
-348 277 -13 22 -33 57 -44 76 -62 106 -87 271 -63 410 30 176 115 333 261
482 63 65 101 94 178 136 54 29 130 64 170 78 64 22 84 24 201 21 115 -3 137
-6 186 -29z m529 -63 c7 -8 20 -15 30 -15 36 0 43 -25 24 -82 -10 -29 -18 -55
-19 -58 -1 -15 -39 -90 -44 -87 -3 2 -28 13 -56 26 -27 13 -52 25 -54 27 -6 5
92 204 100 204 4 0 12 -7 19 -15z m-70 -338 l24 -17 -32 -65 c-18 -36 -39 -82
-46 -103 -8 -20 -52 -116 -98 -212 -47 -96 -106 -224 -133 -285 -50 -116 -77
-172 -180 -375 -101 -199 -108 -210 -127 -204 -12 3 -18 0 -18 -10 0 -9 -4
-16 -10 -16 -15 0 -5 62 24 141 64 171 357 880 442 1066 8 17 14 34 14 39 0 4
11 26 25 50 l25 42 32 -17 c18 -9 44 -24 58 -34z m85 -143 c39 -16 81 -90 93
-165 6 -42 4 -72 -10 -127 -58 -238 -227 -436 -474 -557 -51 -25 -95 -45 -98
-45 -13 0 5 42 91 220 129 265 182 387 177 412 -4 19 -3 20 4 5 9 -22 6 -27
79 143 25 58 49 113 55 123 10 19 20 18 83 -9z"/>
<path d="M1180 1963 c-67 -68 -59 -158 19 -210 66 -44 136 -21 177 60 27 53
25 83 -10 130 -27 37 -66 57 -112 57 -29 0 -44 -8 -74 -37z m130 -5 c5 -14 9
-17 10 -8 0 10 8 6 25 -13 29 -33 32 -74 8 -124 -18 -39 -46 -53 -103 -53 -51
0 -90 43 -90 101 0 51 13 75 53 99 44 27 85 26 97 -2z"/>
<path d="M833 1840 c-38 -23 -73 -86 -73 -132 0 -68 62 -128 133 -128 71 0
146 92 134 165 -15 91 -118 142 -194 95z m118 -20 c23 -13 49 -61 49 -91 0
-38 -23 -99 -37 -99 -8 0 -24 -5 -36 -12 -38 -20 -70 -18 -104 7 -61 47 -53
153 15 189 32 18 85 20 113 6z"/>
<path d="M705 1486 c-38 -17 -60 -42 -80 -90 -31 -73 9 -154 84 -177 106 -32
207 100 154 200 -34 65 -101 93 -158 67z m119 -58 c26 -28 28 -36 23 -81 -10
-80 -62 -118 -138 -102 -39 9 -69 57 -69 111 0 104 114 148 184 72z"/>
<path d="M910 1153 c-42 -22 -80 -76 -80 -115 0 -72 56 -138 117 -138 76 0
143 63 143 135 0 97 -97 161 -180 118z m116 -35 c12 -11 25 -34 29 -51 19 -84
-10 -132 -85 -141 -60 -7 -97 21 -111 82 -12 54 2 87 51 119 39 27 81 24 116
-9z"/>
</g>
</svg>
