<?xml version="1.0" standalone="no"?>
<!DOCTYPE svg PUBLIC "-//W3C//DTD SVG 20010904//EN"
 "http://www.w3.org/TR/2001/REC-SVG-20010904/DTD/svg10.dtd">
<svg version="1.0" xmlns="http://www.w3.org/2000/svg"
 width="289.000000pt" height="307.000000pt" viewBox="0 0 289.000000 307.000000"
 preserveAspectRatio="xMidYMid meet">
<metadata>
Created by potrace 1.16, written by Peter Selinger 2001-2019
</metadata>
<g transform="translate(0.000000,307.000000) scale(0.100000,-0.100000)"
fill="#000000" stroke="none">
<path d="M0 1535 l0 -1535 1445 0 1445 0 0 1535 0 1535 -1445 0 -1445 0 0
-1535z m1840 1436 c122 -33 194 -60 253 -94 23 -14 59 -34 79 -45 20 -12 59
-37 85 -57 26 -20 69 -52 95 -71 51 -38 72 -70 38 -59 -13 4 -20 2 -20 -7 0
-7 -20 7 -43 32 -105 110 -347 238 -562 296 -116 32 -117 32 -70 33 22 0 87
-13 145 -28z m-209 5 c52 -8 101 -17 109 -20 8 -3 34 -10 58 -16 36 -9 41 -14
32 -25 -10 -12 -7 -17 15 -25 14 -5 30 -10 35 -10 51 0 250 -107 326 -175 40
-36 46 -46 34 -54 -12 -9 -12 -11 3 -17 9 -3 26 -4 37 -1 14 4 28 -5 50 -33
16 -21 30 -43 30 -49 0 -6 7 -11 16 -11 13 0 14 -3 5 -13 -13 -17 -5 -27 23
-27 41 0 195 -232 166 -250 -15 -9 -5 -30 15 -30 19 0 35 -32 29 -57 -4 -15 3
-27 25 -44 18 -13 31 -32 31 -44 0 -11 4 -25 9 -30 5 -6 12 -21 16 -35 7 -24
7 -24 -9 -5 -14 18 -15 18 -16 2 0 -9 11 -27 25 -39 14 -12 23 -28 20 -36 -3
-8 -2 -18 1 -24 4 -6 8 -25 10 -42 1 -17 7 -67 14 -111 6 -44 13 -108 17 -142
6 -65 18 -80 32 -41 7 18 9 12 15 -32 13 -107 -4 -338 -27 -368 -7 -9 -7 -16
1 -24 8 -8 7 -17 -3 -32 -8 -12 -24 -53 -36 -91 -30 -100 -61 -163 -81 -168
-23 -6 -28 2 -17 28 5 13 8 15 9 5 0 -8 10 1 20 20 13 23 17 45 14 64 -4 19
-3 26 5 22 6 -4 11 -3 11 3 0 5 8 17 17 27 18 18 25 52 11 60 -4 3 -8 13 -7
22 0 14 2 13 8 -3 8 -19 8 -19 15 3 4 13 5 35 2 49 -5 16 -3 22 4 18 7 -4 9 3
6 22 -2 15 -5 33 -5 38 -1 6 -11 -5 -22 -23 -15 -23 -27 -31 -39 -27 -13 4
-21 -5 -34 -38 -20 -53 -20 -61 -1 -53 12 4 14 0 10 -21 -2 -15 0 -32 6 -39
12 -15 8 -26 -96 -244 -14 -30 -48 -84 -75 -120 -28 -36 -59 -84 -70 -108 -10
-23 -31 -47 -44 -53 -14 -7 -27 -19 -29 -28 -3 -9 -5 -1 -6 17 -2 51 -21 37
-21 -16 0 -47 0 -47 -85 -117 -47 -38 -85 -73 -85 -76 0 -4 -8 -10 -17 -13
-10 -3 -39 -21 -66 -40 -37 -26 -44 -36 -34 -44 10 -9 25 -3 60 21 70 48 187
145 232 192 22 23 47 40 55 38 8 -2 25 12 38 32 13 20 30 35 42 35 10 0 26 9
34 21 8 12 20 19 27 17 8 -3 -1 -19 -24 -45 -20 -22 -37 -47 -37 -56 0 -9 -9
-19 -20 -22 -11 -3 -20 -12 -20 -19 0 -21 -55 -67 -73 -60 -10 4 -37 -11 -75
-43 -33 -26 -87 -65 -121 -85 -33 -20 -61 -42 -61 -47 0 -13 69 -2 98 15 12 8
22 12 22 9 0 -10 -82 -56 -98 -54 -34 3 -53 -1 -47 -11 9 -15 -34 -70 -54 -70
-10 0 -24 7 -32 16 -9 11 -21 14 -43 9 -83 -19 -107 -22 -112 -14 -3 5 -17 9
-32 10 -15 0 -22 2 -17 4 6 2 48 15 95 30 77 24 110 44 110 67 0 13 -21 9 -69
-13 -97 -44 -128 -52 -134 -35 -3 7 -14 6 -35 -6 -16 -10 -44 -18 -62 -18 -17
0 -39 -4 -49 -9 -10 -6 -23 -6 -31 -1 -8 5 -21 5 -29 0 -17 -9 -122 -23 -158
-22 -61 2 -79 5 -90 14 -20 16 -229 54 -245 44 -10 -6 -40 -1 -89 13 -49 15
-75 19 -77 12 -2 -6 -8 -11 -13 -11 -6 0 -8 4 -5 9 9 14 -33 46 -45 34 -8 -8
-5 -13 10 -18 12 -3 19 -11 16 -16 -4 -5 6 -14 20 -21 21 -10 23 -13 11 -20
-10 -6 -26 -3 -43 7 -27 15 -27 16 -3 10 l25 -6 -25 20 c-14 11 -33 21 -42 21
-9 0 -20 5 -23 10 -4 6 -30 25 -58 44 -29 18 -82 64 -119 102 -37 38 -70 65
-74 62 -3 -4 21 -34 55 -66 33 -32 59 -62 56 -65 -3 -4 -2 -5 2 -2 3 3 12 -3
19 -13 7 -9 16 -17 21 -17 5 0 24 -13 43 -28 l35 -28 -41 20 c-22 11 -46 27
-53 35 -8 9 -19 16 -25 16 -39 0 -238 192 -343 329 -56 74 -131 214 -173 326
-12 33 -29 72 -36 87 -8 14 -14 32 -14 40 1 7 7 -2 15 -20 9 -21 19 -31 26
-26 9 5 10 1 7 -14 -4 -12 -3 -20 2 -17 4 2 22 -27 41 -65 18 -39 37 -70 42
-70 4 0 5 -4 2 -10 -7 -11 8 -41 43 -88 37 -49 39 -30 2 25 -18 26 -34 56 -35
68 -2 11 -15 53 -29 93 -14 41 -26 79 -26 85 0 7 -7 25 -15 40 -8 16 -21 62
-30 104 -9 42 -20 84 -26 95 -5 10 -12 31 -14 46 -2 15 -9 67 -16 116 -11 70
-11 90 -1 94 15 5 16 48 1 58 -14 8 -4 151 17 242 15 67 17 89 9 80 -11 -11
-55 -175 -55 -208 -1 -29 -3 -32 -10 -14 -10 24 4 165 19 193 6 11 11 29 11
40 0 11 11 56 25 100 18 56 31 81 42 81 12 0 13 -3 3 -15 -12 -15 -5 -39 10
-30 4 3 24 36 44 73 24 47 33 76 29 92 -4 16 -3 21 6 16 7 -5 17 5 26 28 18
43 19 49 3 40 -7 -4 -8 -3 -4 5 4 6 11 9 16 6 5 -3 38 38 73 92 36 54 83 118
106 143 22 25 41 48 41 52 0 9 129 132 143 137 7 2 46 25 87 51 122 76 221
127 290 148 36 12 90 30 120 41 153 55 328 71 491 47z"/>
<path d="M1384 2361 c-2 -3 -49 -5 -105 -5 -77 -1 -102 -4 -109 -16 -13 -21
-13 -320 0 -320 6 0 10 38 10 94 0 92 5 126 19 126 4 0 8 -15 9 -32 1 -18 7
-46 12 -63 9 -28 10 -28 5 9 -2 21 -2 58 2 82 l6 44 471 0 471 0 -3 -131 c-3
-90 0 -129 7 -125 6 4 10 39 8 86 -1 43 2 82 6 86 13 14 25 -17 18 -45 -4 -14
-3 -73 2 -131 9 -95 -1 -440 -11 -382 -2 12 -8 22 -13 22 -6 0 -10 21 -9 48 1
26 1 103 -1 172 l-2 125 -8 -140 c-3 -77 -7 -176 -8 -220 -2 -55 -5 -74 -11
-59 -4 12 -15 24 -24 27 -19 7 -21 -4 -4 -21 12 -12 3 -13 -596 -14 -172 -1
-230 2 -236 12 -5 9 -9 9 -14 1 -12 -19 -22 -12 -24 16 -3 33 -11 42 -22 23
-6 -8 -10 -10 -10 -5 0 6 16 28 35 48 45 48 49 98 9 124 -25 16 -28 16 -55 0
l-29 -16 0 54 c0 30 -4 55 -10 55 -6 0 -10 -26 -10 -57 l0 -58 -81 -74 -80
-73 -22 20 c-48 43 -105 72 -160 80 -44 7 -60 6 -68 -5 -13 -15 -14 -14 59
-18 55 -4 89 -22 160 -89 l32 -30 38 39 c34 36 148 131 180 149 7 4 19 2 27
-4 19 -16 19 -31 1 -24 -18 7 -32 -14 -18 -28 7 -7 -18 -36 -79 -90 -49 -44
-86 -85 -83 -90 8 -12 -35 -58 -54 -58 -9 0 -39 14 -69 30 l-53 30 0 -121 c0
-118 -1 -122 -25 -141 -14 -11 -32 -33 -41 -50 -19 -37 -21 -116 -4 -148 8
-14 13 -29 12 -34 -4 -14 31 -48 65 -62 18 -8 55 -14 83 -14 46 0 54 4 100 48
l50 48 -1 65 c-1 46 -7 75 -23 103 -34 62 -67 81 -137 81 l-59 -1 0 88 c0 48
3 88 8 88 4 0 21 -9 37 -20 53 -35 83 -27 142 37 29 31 53 60 53 65 0 4 4 8 9
8 6 0 11 -17 13 -37 3 -37 5 -38 47 -44 53 -7 1002 -2 1009 6 8 8 9 30 16 430
4 209 4 388 1 397 -4 10 -21 20 -38 23 -37 7 -817 12 -823 6z m684 -819 c7 -9
15 -16 17 -14 10 5 68 2 63 -4 -9 -8 -587 -6 -601 3 -23 14 51 27 195 32 216
9 310 4 326 -17z m-1021 -286 c29 -24 53 -82 53 -125 0 -32 -37 -98 -64 -116
-45 -30 -87 -28 -138 4 -53 34 -75 84 -64 144 9 47 48 103 69 99 9 -2 17 2 17
8 0 5 22 10 49 10 38 0 56 -6 78 -24z"/>
<path d="M1868 2174 c-91 -49 -87 -173 7 -204 31 -10 40 -9 70 10 19 12 40 30
45 40 13 24 13 86 0 111 -9 15 -82 62 -92 58 -2 -1 -15 -8 -30 -15z m86 -46
c35 -50 10 -119 -47 -132 -59 -14 -104 87 -60 136 24 27 87 24 107 -4z"/>
<path d="M658 2075 c-16 -9 -28 -20 -28 -25 0 -6 -6 -10 -14 -10 -8 0 -24 -21
-36 -46 -18 -36 -21 -56 -17 -96 7 -59 37 -110 73 -126 34 -16 26 -36 -17 -43
-59 -9 -129 -49 -154 -88 -36 -56 -46 -108 -48 -275 -2 -139 0 -156 17 -175
23 -25 43 -27 68 -4 17 15 18 13 18 -52 0 -41 4 -65 9 -60 5 6 12 108 16 228
7 196 6 217 -9 217 -14 0 -16 -16 -18 -107 -1 -60 -2 -127 -2 -150 -1 -30 -7
-46 -21 -57 -18 -13 -22 -12 -45 9 -25 24 -25 27 -18 112 4 49 8 117 9 153 2
76 42 166 71 164 10 -1 15 2 12 7 -10 16 99 57 144 55 52 -3 74 9 33 17 -47
10 -37 26 12 22 121 -10 208 124 158 241 -36 84 -144 128 -213 89z m102 -35
c10 -5 21 -21 24 -36 7 -25 8 -26 21 -8 13 18 15 16 30 -21 28 -65 5 -142 -54
-182 -40 -27 -68 -29 -116 -6 -38 18 -75 80 -75 126 0 53 26 94 72 115 49 23
72 26 98 12z"/>
<path d="M1508 1848 c-19 -18 -55 -52 -81 -76 -26 -23 -47 -45 -47 -49 0 -3
-28 -33 -62 -67 -35 -33 -56 -55 -46 -48 13 10 17 10 20 0 5 -13 48 31 99 101
15 22 40 47 55 58 15 10 44 34 63 54 l35 37 45 -42 c24 -22 62 -58 84 -80 l39
-38 31 29 c18 16 53 47 80 68 l47 38 58 -62 c51 -54 82 -75 82 -55 0 9 -141
139 -151 139 -4 0 -39 -28 -77 -62 l-69 -62 -47 42 c-25 23 -64 57 -85 75
l-39 33 -34 -33z"/>
<path d="M1458 1276 c-12 -6 -37 -31 -55 -54 -29 -38 -33 -51 -33 -105 0 -73
22 -117 76 -149 19 -11 33 -22 30 -25 -2 -2 -30 -11 -62 -20 -68 -17 -139 -65
-156 -105 -7 -15 -15 -28 -18 -28 -3 1 -16 24 -30 53 -21 45 -33 56 -83 81
-91 45 -223 45 -324 0 -71 -32 -120 -132 -123 -254 -3 -102 -2 -109 11 -88 5
9 12 54 14 98 8 130 43 188 140 231 71 31 194 31 260 -1 50 -24 100 -82 110
-130 3 -15 2 -46 -4 -67 -9 -35 -16 -161 -13 -226 1 -16 7 -27 13 -25 7 2 12
46 14 113 4 137 26 202 87 262 63 61 101 74 225 74 97 0 107 -1 138 -25 39
-30 45 -31 45 -11 0 8 -19 25 -42 37 -34 18 -58 22 -115 20 -43 -1 -73 2 -73
8 0 6 20 10 44 10 88 0 162 88 152 180 -6 56 -25 100 -43 100 -7 0 -13 6 -13
13 0 35 -121 58 -172 33z m139 -35 c34 -18 53 -63 53 -125 0 -47 -4 -60 -30
-90 -43 -49 -86 -61 -139 -40 -82 33 -114 131 -69 209 39 67 113 86 185 46z"/>
<path d="M2003 1270 c-46 -28 -83 -88 -89 -146 -10 -92 48 -162 151 -181 36
-6 37 -7 12 -11 -47 -6 -26 -27 24 -24 76 5 170 -52 204 -124 9 -19 18 -77 22
-138 8 -139 28 -140 28 -1 0 107 -17 160 -71 216 -32 33 -103 69 -139 69 -35
0 -31 11 14 39 47 30 69 65 77 125 5 37 2 55 -20 100 -21 44 -35 58 -71 75
-56 26 -101 27 -142 1z m115 -29 c58 -30 75 -55 79 -117 4 -66 -14 -107 -60
-134 -43 -27 -87 -25 -131 5 -20 14 -41 25 -45 25 -11 0 -21 51 -21 99 1 51
19 86 59 116 42 30 69 31 119 6z"/>
<path d="M1925 906 c-53 -25 -74 -44 -97 -90 l-15 -28 -22 35 c-23 37 -46 52
-56 37 -3 -6 10 -27 30 -47 22 -22 35 -45 33 -58 -1 -11 3 -30 10 -42 7 -13
12 -66 12 -137 0 -112 11 -157 24 -95 9 46 7 198 -4 243 -9 43 9 95 46 127 30
27 101 59 129 59 14 0 25 5 25 10 0 18 -64 10 -115 -14z"/>
</g>
</svg>
