<?xml version="1.0" standalone="no"?>
<!DOCTYPE svg PUBLIC "-//W3C//DTD SVG 20010904//EN"
 "http://www.w3.org/TR/2001/REC-SVG-20010904/DTD/svg10.dtd">
<svg version="1.0" xmlns="http://www.w3.org/2000/svg"
 width="271.000000pt" height="306.000000pt" viewBox="0 0 271.000000 306.000000"
 preserveAspectRatio="xMidYMid meet">
<metadata>
Created by potrace 1.16, written by Peter Selinger 2001-2019
</metadata>
<g transform="translate(0.000000,306.000000) scale(0.100000,-0.100000)"
fill="#000000" stroke="none">
<path d="M0 1530 l0 -1530 1355 0 1355 0 0 1530 0 1530 -1355 0 -1355 0 0
-1530z m1520 1501 c-24 -7 -24 -7 9 -14 18 -4 43 -7 55 -7 17 0 18 2 6 10 -20
13 -7 12 91 -5 46 -8 122 -27 169 -43 96 -33 230 -98 230 -112 0 -5 9 -12 21
-15 33 -11 99 -75 93 -90 -4 -10 -23 -3 -77 27 -109 60 -306 153 -362 171 -27
8 -81 15 -118 16 -38 1 -76 5 -85 11 -14 8 -14 9 -2 10 28 1 -12 20 -42 20
-16 0 -28 4 -28 9 0 12 19 19 45 19 16 0 14 -2 -5 -7z m-99 -33 c3 -5 25 -9
48 -10 23 0 47 -6 54 -12 22 -23 107 -38 138 -26 21 9 32 9 46 0 16 -10 16
-10 -4 -5 -13 4 -23 2 -23 -3 0 -8 42 -20 133 -39 15 -3 27 -9 27 -14 0 -6 19
-18 43 -29 23 -11 50 -25 61 -32 15 -10 19 -10 23 0 3 6 9 12 15 12 6 0 8 -7
4 -15 -4 -10 5 -22 27 -35 43 -25 89 -58 139 -98 23 -18 47 -31 54 -28 7 3 16
-5 20 -17 4 -12 27 -44 52 -72 48 -53 109 -141 188 -270 42 -69 65 -120 115
-255 15 -41 27 -120 18 -114 -5 3 -9 14 -9 25 0 11 -4 17 -10 14 -5 -3 -10
-15 -10 -26 0 -11 -7 -19 -17 -19 -14 0 -14 -2 2 -20 20 -22 13 -39 -8 -22
-26 22 -37 -11 -14 -42 12 -16 17 -17 37 -6 31 16 40 0 40 -70 0 -86 0 -89 16
-118 7 -15 14 -37 14 -49 0 -13 4 -23 8 -23 10 0 9 6 23 -123 8 -69 8 -111 1
-140 -9 -37 -10 -31 -6 43 3 79 2 74 -18 -60 -12 -80 -24 -138 -26 -130 -3 8
-13 -12 -23 -45 -31 -107 -145 -370 -182 -421 -20 -27 -44 -62 -53 -79 -9 -16
-34 -53 -55 -82 -22 -29 -40 -61 -42 -72 -2 -11 -7 -24 -12 -28 -4 -5 -5 -1
-1 7 7 13 6 13 -6 0 -7 -8 -21 -19 -29 -25 -9 -5 -47 -36 -85 -68 -61 -52
-140 -104 -222 -146 -15 -7 -36 -22 -48 -32 -11 -10 -44 -23 -73 -29 -29 -5
-67 -16 -84 -24 -58 -26 -195 -46 -312 -46 -97 0 -116 3 -127 18 -9 12 -28 17
-63 18 -105 2 -234 37 -360 99 -27 13 -63 29 -80 36 -35 13 -80 20 -70 11 6
-7 10 -8 36 -11 5 0 7 -7 3 -13 -4 -7 -4 -10 1 -6 4 4 16 -4 27 -17 11 -14 26
-25 34 -25 19 0 113 -60 94 -60 -13 0 -13 -1 0 -11 13 -9 13 -10 0 -6 -8 2
-14 10 -12 17 2 8 -3 10 -13 6 -19 -7 -75 20 -165 80 -94 63 -210 156 -210
169 0 6 -31 36 -68 66 -101 83 -219 264 -282 434 -12 33 -26 69 -30 80 -31 73
-72 284 -53 272 6 -4 8 -19 5 -33 -3 -16 -1 -24 4 -21 6 3 9 -10 7 -31 -2 -31
-1 -33 6 -12 l7 25 6 -30 c3 -16 8 -39 13 -50 5 -16 5 -17 -4 -5 -9 13 -11 13
-11 -1 0 -9 6 -19 13 -22 7 -2 21 -31 31 -63 10 -33 27 -75 37 -95 10 -20 16
-39 13 -42 -3 -3 9 -27 25 -55 17 -27 31 -54 31 -60 0 -10 30 -32 43 -32 3 0
-13 37 -35 81 -67 137 -118 295 -158 484 -7 33 -16 73 -21 89 -5 16 -9 80 -9
143 0 64 -5 123 -11 135 -8 14 -8 23 0 31 6 6 10 25 10 42 l-2 30 -7 -35 c-15
-71 -9 71 7 165 16 94 58 248 46 170 -3 -22 -5 -46 -4 -52 0 -7 1 -19 2 -25 0
-7 -6 -44 -14 -83 -24 -115 -27 -135 -17 -135 4 0 12 26 16 58 4 31 13 77 20
102 7 24 11 55 7 68 -3 15 -1 22 7 20 14 -3 43 70 36 89 -3 7 -2 13 3 13 13 0
92 160 85 172 -4 6 -3 8 3 5 5 -3 24 22 42 56 18 34 48 82 67 107 19 25 39 54
44 65 6 11 24 38 40 60 66 90 12 61 -71 -38 -33 -40 -65 -82 -72 -94 -7 -12
-26 -41 -44 -66 -34 -49 -53 -94 -34 -83 7 5 8 1 4 -9 -4 -12 -8 -13 -13 -5
-9 14 -36 -30 -70 -113 -30 -72 -39 -58 -12 15 48 126 76 174 186 316 64 83
194 222 207 222 5 0 43 28 86 63 65 52 206 137 227 137 17 0 2 -18 -31 -35
-21 -11 -54 -35 -73 -53 -60 -56 -121 -102 -136 -102 -8 0 -14 -4 -14 -9 0 -4
-18 -29 -41 -55 -47 -53 -38 -62 13 -12 118 115 438 286 535 286 12 0 24 4 27
9 4 5 25 12 49 16 23 4 56 10 72 15 17 5 49 14 73 20 24 6 40 15 36 21 -8 13
68 0 77 -13z m928 -359 c12 -17 20 -37 17 -45 -3 -9 1 -14 13 -14 13 0 39 -28
76 -81 94 -134 151 -257 193 -419 31 -116 33 -130 22 -130 -12 0 -38 60 -51
120 -8 40 -61 170 -91 225 -7 11 -21 37 -32 59 -12 21 -64 96 -117 166 -68 91
-93 132 -86 139 18 18 32 13 56 -20z m40 -2151 c-11 -22 -35 -51 -121 -151
-90 -104 -255 -189 -479 -247 -130 -34 -309 -56 -309 -39 0 5 3 9 8 9 148 9
260 38 386 102 42 21 77 32 112 33 44 1 63 9 125 51 69 46 229 196 229 215 0
10 52 60 58 55 2 -3 -2 -15 -9 -28z"/>
<path d="M736 2268 c-59 -8 -111 -39 -102 -62 2 -6 -3 -18 -11 -28 -12 -13
-14 -74 -14 -353 0 -225 4 -341 11 -350 8 -10 6 -21 -8 -44 -16 -26 -17 -40
-10 -93 8 -67 11 -505 3 -519 -9 -14 15 -103 33 -123 9 -10 32 -25 50 -33 17
-7 32 -17 32 -21 0 -4 57 -6 127 -5 71 1 120 -1 111 -3 -29 -9 -20 -25 10 -19
l27 6 -25 -15 c-33 -20 -17 -20 26 0 19 9 31 20 28 25 -6 10 69 14 187 10 83
-3 139 16 139 47 0 13 6 10 26 -13 l26 -30 111 1 c62 1 144 3 182 4 39 2 134
2 212 -1 140 -4 142 -4 168 21 53 50 53 49 49 413 -2 218 -7 345 -14 358 -8
15 -8 24 0 34 12 15 15 65 12 223 -1 60 -6 102 -12 102 -6 0 -10 -58 -10 -154
0 -121 -3 -156 -14 -165 -10 -8 -53 -11 -136 -9 -111 3 -123 1 -136 -16 -19
-27 -18 -53 6 -83 32 -42 5 -130 -48 -152 -63 -26 -152 27 -152 91 0 13 9 41
20 63 24 47 24 55 6 81 -12 15 -27 19 -78 20 -132 1 -146 3 -151 22 -4 14 -5
15 -6 1 0 -9 -10 -19 -20 -22 -19 -5 -20 2 -23 121 -4 148 3 167 50 140 64
-38 139 -12 168 58 20 47 17 87 -7 129 -38 63 -104 82 -153 44 -15 -12 -34
-18 -42 -15 -14 5 -15 23 -10 133 4 70 12 133 18 140 8 10 50 13 159 13 81 0
150 4 153 9 8 12 -165 25 -246 19 -46 -3 -65 -9 -78 -26 l-17 -21 -22 22 c-21
21 -30 22 -264 24 -133 1 -251 4 -262 6 -11 1 -47 -1 -79 -5z m384 -18 c-17
-6 -2 -8 53 -9 42 -1 77 -4 77 -8 0 -5 19 -8 42 -8 l43 0 2 -120 c3 -147 7
-163 39 -175 20 -8 32 -6 54 10 54 39 115 18 141 -49 20 -51 -19 -133 -67
-145 -19 -5 -40 0 -69 15 -41 22 -44 22 -69 6 -26 -17 -26 -18 -26 -152 l0
-135 -32 -1 c-18 0 -77 -2 -130 -5 -95 -5 -98 -5 -98 16 0 11 9 38 20 60 24
47 25 62 4 106 -32 67 -109 97 -172 67 -68 -32 -94 -125 -51 -184 11 -16 19
-37 17 -47 -3 -15 -15 -17 -118 -14 -63 2 -122 5 -131 8 -17 5 -19 40 -18 369
0 285 11 343 70 358 16 4 19 2 14 -11 -5 -14 -4 -15 7 -4 7 7 13 18 13 25 0 8
23 12 70 13 171 2 274 7 287 15 7 5 22 8 33 8 16 -1 16 -2 -5 -9z m-69 -563
c42 -32 51 -101 18 -146 -23 -31 -18 -75 9 -86 9 -3 70 -8 136 -11 66 -2 121
-5 122 -7 2 -2 4 -61 5 -131 1 -136 -6 -162 -38 -133 -38 33 -71 38 -113 17
-64 -33 -93 -118 -65 -187 20 -47 82 -85 126 -77 19 4 44 14 56 21 19 13 22
12 28 -7 8 -26 8 -215 0 -241 -6 -18 -22 -19 -305 -19 -164 0 -305 -2 -312 -5
-8 -3 -31 11 -52 32 l-38 38 5 334 c4 262 8 336 18 346 10 10 48 15 119 16
149 3 175 26 131 112 -53 104 58 204 150 134z m579 -262 c0 -8 -9 -33 -21 -55
-34 -65 -12 -133 54 -167 36 -18 73 -19 123 -3 65 22 96 131 53 191 -11 16
-17 33 -14 39 8 14 262 13 270 0 10 -16 6 -667 -4 -694 -5 -12 -22 -31 -37
-41 -26 -17 -55 -18 -345 -19 l-316 -1 -12 26 c-7 16 -11 68 -9 132 2 85 -1
109 -16 131 -18 29 -44 29 -77 0 -21 -18 -69 -18 -96 1 -12 8 -27 31 -33 51
-33 99 53 198 127 146 48 -33 52 -33 73 -12 18 18 20 33 20 154 l0 133 130 2
c109 1 130 -1 130 -14z"/>
<path d="M1830 2261 c-116 -8 -78 -20 71 -22 114 -1 122 -3 152 -28 18 -14 35
-30 39 -36 4 -5 8 -88 8 -182 0 -109 4 -173 10 -173 12 0 11 -12 16 185 4 145
2 163 -16 192 -10 18 -29 39 -42 47 -28 18 -125 25 -238 17z"/>
</g>
</svg>
